<svg height="478pt" viewBox="0 -5 478.62904 478" width="478pt" xmlns="http://www.w3.org/2000/svg"><path d="m460.761719 256.714844c8.636719 31.679687 22.398437 64.160156 16.398437 97.601562-20 112.558594-167.679687 154.316406-239.839844 63.917969-8.878906-11.121094-15.441406-22.71875-19.921874-34.71875h-.078126c-36.800781-96.5625 56.878907-216.082031 130.71875-279.199219 4.082032-3.601562 8.160157-6.882812 12.160157-10.082031.640625-.480469 1.839843-1.441406 3.359375-2.640625 9.042968-7.121094 31.203125-24 38-24-2.160156 0-12.398438 23.679688-13.839844 26.5625-1.519531 3.039062-3.039062 6-4.398438 9.039062-.878906 1.839844-1.679687 3.679688-2.558593 5.519532-1.28125 2.960937-2.5625 6-3.683594 9.039062-11.277344 29.839844-15.199219 63.28125 3.363281 91.28125.71875 1.199219 5.199219 6.320313 9.679688 11.4375 4.957031 5.761719 10.078125 11.601563 10.078125 11.84375 1.359375-2.5625 6.160156-11.523437 7.359375-14.160156 4.882812-11.121094 8.882812-23.121094 17.761718-31.761719 10-9.839843 25.679688-18.320312 40.160157-16.238281-2 7.199219-6.242188 13.917969-8.160157 21.4375-1.761718 6.960938-2.640624 14.160156-2.800781 21.359375-.320312 14.800781 2.402344 29.519531 6.242188 43.761719zm-84.5625 191.601562c19.601562-20.722656 24.960937-59.121094 15.359375-86.160156-6.878906-19.121094-20.480469-34.640625-33.199219-50.082031-13.039063-15.839844-20.800781-31.519531-29.757813-49.441407-11.523437 17.523438-26.160156 34.882813-36.082031 53.441407-21.679687 40.480469-23.679687 96.558593 8.320313 132.480469 21.121094 23.601562 56 20.238281 75.359375-.238282zm0 0" fill="#ef6060"/><path d="m391.558594 362.15625c9.601562 27.039062 4.242187 65.4375-15.359375 86.160156-19.359375 20.476563-54.238281 23.839844-75.359375.238282-32-35.921876-30-92-8.320313-132.480469 9.921875-18.558594 24.558594-35.917969 36.082031-53.441407 8.957032 17.921876 16.71875 33.601563 29.757813 49.441407 12.71875 15.441406 26.320313 30.960937 33.199219 50.082031zm0 0" fill="#f49d5d"/><path d="m392.199219 192.316406c0 9.597656-.71875 18.957032-2.078125 28.15625-4.480469-5.117187-8.960938-10.238281-9.679688-11.4375-18.5625-28-14.640625-61.441406-3.363281-91.28125 9.761719 22.960938 15.121094 48.160156 15.121094 74.5625zm0 0" fill="#99b6d1"/><path d="m363.558594 91.59375c-1.519532 1.199219-2.71875 2.160156-3.359375 2.640625-4 3.199219-8.078125 6.480469-12.160157 10.082031h-51.839843l-16 24-109.039063-10.882812c-16.238281-1.597656-31.921875-6.558594-46-14.160156-14.082031-7.679688-26.71875-18.160157-36.960937-30.957032h261.839843c4.882813 6.15625 9.441407 12.558594 13.519532 19.277344zm0 0" fill="#3b668f"/><path d="m96.199219 168.316406h-24l-32 32h-31.839844c-.078125-2.640625-.160156-5.28125-.160156-8 0-106 86-192 192-192 60.5625 0 114.640625 28.078125 149.839843 72h-261.839843c10.242187 12.796875 22.878906 23.277344 36.960937 30.957032 14.078125 7.601562 29.761719 12.5625 46 14.160156l109.039063 10.882812 16-24h51.839843c-73.839843 63.117188-167.519531 182.636719-130.71875 279.199219-5.679687.558594-11.28125.800781-17.121093.800781-92.238281 0-169.359375-65.121094-187.757813-152h27.757813l32 32h24zm0 0" fill="#99b6d1"/><path d="m96.199219 232.316406v32h-24l-32-32h-27.757813c-2.242187-10.320312-3.601562-21.042968-4.082031-32h31.839844l32-32h24zm0 0" fill="#e3e1db"/><path d="m437.039062 321.691406c-1.855468-10.609375-5.09375-21.570312-9.136718-34.800781l-1.511719-5.097656c-1.453125-4.855469-2.910156-9.726563-4.230469-14.589844-2.082031-7.839844-3.519531-14.089844-4.542968-19.6875l15.734374-2.890625c.953126 5.183594 2.3125 11.050781 4.265626 18.441406 1.269531 4.6875 2.6875 9.417969 4.101562 14.152344l1.511719 5.078125c4.175781 13.691406 7.554687 25.136719 9.570312 36.648437zm0 0" fill="#e3e1db"/><path d="m96.199219 168.316406v96h-24l-32-32h-27.757813c-2.242187-10.320312-3.601562-21.042968-4.082031-32h31.839844l32-32zm0 0" fill="#3b668f"/><path d="m104.199219 272.316406h-35.3125l-32-32h-30.894531l-1.367188-6.304687c-2.328125-10.707031-3.753906-21.921875-4.257812-33.34375l-.367188-8.351563h36.886719l32-32h35.3125zm-28.6875-16h12.6875v-80h-12.6875l-32 32h-26.617188c.480469 5.421875 1.183594 10.773438 2.113281 16h24.496094zm0 0" fill="#3b668f"/><path d="m96.199219 160.316406h96v16h-96zm0 0" fill="#3b668f"/><path d="m96.199219 192.316406h96v16h-96zm0 0" fill="#3b668f"/><path d="m96.199219 224.316406h96v16h-96zm0 0" fill="#3b668f"/><path d="m96.199219 256.316406h96v16h-96zm0 0" fill="#3b668f"/><g fill="#e3e1db"><path d="m61.199219 154.425781-15.4375-4.214843c5.925781-21.695313 16.160156-41.527344 30.40625-58.953126l12.382812 10.128907c-12.824219 15.671875-22.023437 33.511719-27.351562 53.039062zm0 0"/><path d="m183.359375 351.472656c-42.96875-4.558594-82.863281-26.78125-109.472656-60.957031l12.625-9.832031c23.953125 30.773437 59.863281 50.773437 98.527343 54.878906zm0 0"/><path d="m260.832031 61.652344c-19.03125-8.851563-39.433593-13.335938-60.632812-13.335938s-41.597657 4.484375-60.632813 13.335938l-6.742187-14.515625c21.160156-9.839844 43.824219-14.820313 67.375-14.820313 23.554687 0 46.214843 4.980469 67.367187 14.820313zm0 0"/><path d="m208.199219 160.316406h16v16h-16zm0 0"/><path d="m240.199219 160.316406h16v16h-16zm0 0"/><path d="m208.199219 192.316406h16v16h-16zm0 0"/><path d="m452.039062 364.019531-15.839843-2.28125c.953125-6.609375 1.832031-13.214843 2.703125-19.832031l15.859375 2.097656c-.875 6.671875-1.761719 13.34375-2.722657 20.015625zm0 0"/></g></svg>