<?xml version="1.0" encoding="utf-8"?>
<!-- Svg Vector Icons : http://www.onlinewebfonts.com/icon -->
<!DOCTYPE svg PUBLIC "-//W3C//DTD SVG 1.1//EN" "http://www.w3.org/Graphics/SVG/1.1/DTD/svg11.dtd">
<svg version="1.1" xmlns="http://www.w3.org/2000/svg" xmlns:xlink="http://www.w3.org/1999/xlink" x="0px" y="0px" viewBox="0 0 1000 1000" enable-background="new 0 0 1000 1000" xml:space="preserve">
<metadata> Svg Vector Icons : http://www.onlinewebfonts.com/icon </metadata>
<g><path d="M821,770.3H685.8v-67.6H821V770.3z M685.8,567.6H821v67.6H685.8V567.6z M922.4,905.5h-67.6H517c-0.1,0-0.1,0-0.1,0H212.8h-0.1H10v-67.6h67.6v-67.6v-33.8V229.7c0-74.7,60.5-135.2,135.2-135.2h304.2c74.7,0,135.2,60.5,135.2,135.2v506.9l0,0V838h202.8V567.6c0-37.4-30.2-67.6-67.6-67.6H652.1v-67.6h135.2c74.7,0,135.2,60.5,135.2,135.2v270.3H990v67.6H922.4z M584.5,770.3v-33.8V229.7c0-37.3-30.2-67.6-67.6-67.6H212.8c-37.4,0-67.6,30.3-67.6,67.6v540.7l0,0v67.6h67.6h270.3h33.8h67.6V770.3z M381.7,736.6V669h135.2v67.6h-33.8H381.7z M381.7,466.2h135.2v67.6H381.7V466.2z M381.7,263.5h135.2v67.6H381.7V263.5z M212.8,669h135.2v67.6H212.8V669z M212.8,466.2h135.2v67.6H212.8V466.2z M212.8,263.5h135.2v67.6H212.8V263.5z"/></g>
</svg>