<?xml version="1.0" encoding="UTF-8" standalone="no"?>
<svg
   xmlns:dc="http://purl.org/dc/elements/1.1/"
   xmlns:cc="http://creativecommons.org/ns#"
   xmlns:rdf="http://www.w3.org/1999/02/22-rdf-syntax-ns#"
   xmlns:svg="http://www.w3.org/2000/svg"
   xmlns="http://www.w3.org/2000/svg"
   xmlns:sodipodi="http://sodipodi.sourceforge.net/DTD/sodipodi-0.dtd"
   xmlns:inkscape="http://www.inkscape.org/namespaces/inkscape"
   inkscape:version="1.0beta2 (2b71d25d45, 2019-12-03)"
   sodipodi:docname="cooking.svg"
   xml:space="preserve"
   width="512px"
   viewBox="0 0 512 512"
   version="1.1"
   id="Layer_1"
   height="512px"
   enable-background="new 0 0 512 512"><metadata
     id="metadata54"><rdf:RDF><cc:Work
         rdf:about=""><dc:format>image/svg+xml</dc:format><dc:type
           rdf:resource="http://purl.org/dc/dcmitype/StillImage" /></cc:Work></rdf:RDF></metadata><defs
     id="defs52" /><sodipodi:namedview
     inkscape:current-layer="g47"
     inkscape:window-maximized="1"
     inkscape:window-y="0"
     inkscape:window-x="0"
     inkscape:cy="256"
     inkscape:cx="256"
     inkscape:zoom="1.65625"
     showgrid="false"
     id="namedview50"
     inkscape:window-height="1007"
     inkscape:window-width="1920"
     inkscape:pageshadow="2"
     inkscape:pageopacity="0"
     guidetolerance="10"
     gridtolerance="10"
     objecttolerance="10"
     borderopacity="1"
     inkscape:document-rotation="0"
     bordercolor="#666666"
     pagecolor="#ffffff" /><g
     id="g47"><g
       transform="matrix(1.4637804,0,0,1.3190525,-119.47681,-59.03123)"
       id="g41"><linearGradient
         y2="217.72169"
         y1="217.72169"
         x2="411.5303"
         x1="100.4717"
         id="SVGID_1_"
         gradientUnits="userSpaceOnUse"><stop
           id="stop6"
           style="stop-color:#989A9D"
           offset="0" /><stop
           id="stop8"
           style="stop-color:#FFFFFF"
           offset="0.1868" /><stop
           id="stop10"
           style="stop-color:#D4D6D7"
           offset="0.3407" /><stop
           id="stop12"
           style="stop-color:#CCCECF"
           offset="0.4945" /><stop
           id="stop14"
           style="stop-color:#F5F5F6"
           offset="0.6319" /><stop
           id="stop16"
           style="stop-color:#BBBDBF"
           offset="1" /></linearGradient><path
         inkscape:connector-curvature="0"
         style="fill:url(#SVGID_1_)"
         id="path19"
         fill="url(#SVGID_1_)"
         d="m 125.306,242.152 c -15.725,-7.036 -24.834,-15.426 -24.834,-24.428 0,-24.869 69.637,-45.046 155.529,-45.046 85.891,0 155.529,20.178 155.529,45.046 0,9.341 -9.814,18.016 -26.625,25.215 -27.965,11.97 -75.25,19.826 -128.904,19.826 -54.807,0 -103,-8.208 -130.695,-20.613 z" /><path
         inkscape:connector-curvature="0"
         id="path21"
         fill="#3F3F3F"
         d="m 384.905,242.939 c -27.965,11.97 -75.25,19.826 -128.904,19.826 -54.807,0 -103,-8.208 -130.695,-20.613 -15.725,-7.036 -24.834,-15.426 -24.834,-24.428 0,-24.869 69.637,-45.046 155.529,-45.046 85.891,0 155.529,20.178 155.529,45.046 0,9.341 -9.814,18.016 -26.625,25.215 z m 1.451,-26.618 c 0,-19.154 -58.359,-34.676 -130.355,-34.676 -71.998,0 -130.355,15.522 -130.355,34.676 0,19.162 58.357,34.69 130.355,34.69 71.996,0 130.355,-15.528 130.355,-34.69 z" /><path
         inkscape:connector-curvature="0"
         id="path23"
         fill="#F6901E"
         d="m 256.001,181.645 c 71.996,0 130.355,15.522 130.355,34.676 0,19.162 -58.359,34.69 -130.355,34.69 -71.998,0 -130.355,-15.528 -130.355,-34.69 0,-19.154 58.357,-34.676 130.355,-34.676 z" /><path
         inkscape:connector-curvature="0"
         id="path25"
         fill="#282828"
         d="m 384.905,242.939 c 28.779,39.157 13.748,97.577 13.748,97.577 -16.297,68.519 -112.191,74.911 -143.764,75.134 -31.572,-0.223 -127.482,-6.615 -143.789,-75.134 0,0 -15.115,-58.739 13.988,-97.896 l 0.217,-0.468 C 153,254.556 201.194,262.765 256,262.765 c 53.655,0 100.94,-7.856 128.905,-19.826 z" /><path
         inkscape:connector-curvature="0"
         id="path27"
         fill="none"
         d="m 264.948,415.495 c 0,0 -3.742,0.203 -10.059,0.155 -31.572,-0.223 -127.482,-6.615 -143.789,-75.134 0,0 -15.115,-58.739 13.988,-97.896" /><path
         inkscape:connector-curvature="0"
         id="path29"
         fill="none"
         d="m 244.815,415.495 c 0,0 3.742,0.203 10.074,0.155 31.572,-0.223 127.467,-6.615 143.764,-75.134 0,0 15.031,-58.42 -13.748,-97.577 -0.08,-0.102 -0.148,-0.224 -0.23,-0.318" /><path
         inkscape:connector-curvature="0"
         id="path31"
         fill="none"
         d="m 386.356,216.321 c 0,19.162 -58.359,34.69 -130.355,34.69 -71.998,0 -130.355,-15.528 -130.355,-34.69 0,-19.154 58.357,-34.676 130.355,-34.676 71.996,0 130.355,15.522 130.355,34.676 z" /><path
         inkscape:connector-curvature="0"
         id="path33"
         fill="#F9A450"
         d="m 286.353,231.857 c 0.096,-0.65 0.137,-1.308 0.137,-1.973 0,-8.961 -7.252,-16.227 -16.227,-16.227 -8.947,0 -16.213,7.266 -16.213,16.227 0,0.665 0.053,1.322 0.135,1.973 z" /><path
         inkscape:connector-curvature="0"
         id="path35"
         fill="#F9A450"
         d="m 269.612,204.73 c 0.053,-0.467 0.094,-0.941 0.094,-1.43 0,-6.487 -5.26,-11.747 -11.74,-11.747 -6.492,0 -11.752,5.26 -11.752,11.747 0,0.488 0.039,0.962 0.094,1.43 z" /><path
         inkscape:connector-curvature="0"
         id="path37"
         fill="#905A24"
         d="m 183.313,211.57 h 22.096 L 163.101,72.762 c -1.18,-3.857 -5.273,-6.039 -9.139,-4.866 l -6.221,1.897 c -3.863,1.179 -6.033,5.267 -4.852,9.137 z" /><path
         inkscape:connector-curvature="0"
         id="path39"
         fill="#F9A450"
         d="m 222.53,226.116 c 0.107,-0.916 0.191,-1.85 0.191,-2.799 0,-12.669 -10.275,-22.937 -22.939,-22.937 -12.674,0 -22.949,10.268 -22.949,22.937 0,0.949 0.082,1.883 0.191,2.799 z" /></g><path
       id="path43"
       fill="#F9A450"
       d="M288.251,107.154c0,10.242-8.297,18.545-18.545,18.545c-10.234,0-18.545-8.303-18.545-18.545   s8.311-18.545,18.545-18.545C279.954,88.609,288.251,96.913,288.251,107.154z" /><path
       id="path45"
       fill="#F9A450"
       d="M294.093,130.572c0,4.033-3.279,7.308-7.32,7.308c-4.025,0-7.307-3.274-7.307-7.308   c0-4.04,3.281-7.312,7.307-7.312C290.813,123.259,294.093,126.532,294.093,130.572z" /><path
       inkscape:connector-curvature="0"
       id="path30"
       d="M 223.91201,271.21705 C 128.75397,266.99571 61.564154,247.3002 64.964599,224.62441 c 1.598057,-10.65661 20.400244,-21.41068 51.080681,-29.21604 11.05415,-2.81226 21.95931,-5.03971 22.39813,-4.57496 0.19821,0.20992 2.21098,5.85033 4.47282,12.53424 l 4.11245,12.15255 -2.73324,4.14933 c -3.43052,5.20791 -4.8268,9.44186 -4.92667,14.93923 l -0.0782,4.30445 33.66037,0.15601 33.66038,0.15601 -0.0148,-3.77865 c -0.0315,-8.06446 -2.5684,-13.91736 -8.72676,-20.13342 -4.93963,-4.98589 -10.94987,-8.25066 -17.36479,-9.43256 l -4.0686,-0.74961 -3.2816,-9.82587 c -1.80489,-5.40423 -3.00416,-9.82587 -2.66505,-9.82587 0.33911,0 6.09198,-0.53412 12.78417,-1.18692 68.81117,-6.71231 146.87741,-3.31047 201.56258,8.78336 39.62225,8.76261 62.16938,21.50684 60.72478,34.32325 -2.08176,18.46929 -50.85868,34.87014 -123.02541,41.36631 -7.4717,0.67257 -18.20377,1.51084 -23.84906,1.86282 -13.67099,0.85238 -60.51905,1.22139 -74.77478,0.58898 z m 76.13191,-28.10985 c -0.82945,-10.33322 -8.81379,-18.39515 -19.98566,-20.17986 -10.26305,-1.63953 -21.57923,3.74999 -25.68596,12.23337 -1.52536,3.15096 -2.60061,8.48756 -2.10667,10.45558 l 0.36339,1.44786 h 23.86627 23.86626 z m -24.61567,-34.53362 c -0.0352,-7.61382 -6.77191,-14.10707 -15.59249,-15.02901 -6.40843,-0.66981 -13.34643,2.44494 -16.65517,7.4772 -1.69763,2.58192 -2.87623,7.12001 -2.36093,9.09053 l 0.34759,1.32921 h 17.13713 17.13713 l -0.0133,-2.86793 z"
       style="fill:#ffb380;stroke-width:0.603774" /></g></svg>
