<?xml version="1.0" ?><!DOCTYPE svg  PUBLIC '-//W3C//DTD SVG 1.1//EN'  'http://www.w3.org/Graphics/SVG/1.1/DTD/svg11.dtd'><svg enable-background="new 0 0 512 512" height="512px" id="Layer_1" version="1.1" viewBox="0 0 512 512" width="512px" xml:space="preserve" xmlns="http://www.w3.org/2000/svg" xmlns:xlink="http://www.w3.org/1999/xlink"><g><path d="M505.866,256c0,138.001-111.863,249.867-249.865,249.867S6.134,394.001,6.134,256   c0-137.995,111.865-249.867,249.867-249.867S505.866,118.005,505.866,256z" fill="#004972"/><path d="M256.001,352.628c-79.25,0-155.135,4.135-225.234,11.693c40.355,83.749,126.045,141.546,225.234,141.546   s184.877-57.797,225.234-141.546C411.138,356.763,335.235,352.628,256.001,352.628z" fill="#231F20"/><g><linearGradient gradientUnits="userSpaceOnUse" id="SVGID_1_" x1="100.4717" x2="411.5303" y1="217.7217" y2="217.7217"><stop offset="0" style="stop-color:#989A9D"/><stop offset="0.1868" style="stop-color:#FFFFFF"/><stop offset="0.3407" style="stop-color:#D4D6D7"/><stop offset="0.4945" style="stop-color:#CCCECF"/><stop offset="0.6319" style="stop-color:#F5F5F6"/><stop offset="1" style="stop-color:#BBBDBF"/></linearGradient><path d="M125.306,242.152c-15.725-7.036-24.834-15.426-24.834-24.428    c0-24.869,69.637-45.046,155.529-45.046c85.891,0,155.529,20.178,155.529,45.046c0,9.341-9.814,18.016-26.625,25.215    c-27.965,11.97-75.25,19.826-128.904,19.826C201.194,262.765,153.001,254.557,125.306,242.152z" fill="url(#SVGID_1_)"/><path d="M384.905,242.939c-27.965,11.97-75.25,19.826-128.904,19.826c-54.807,0-103-8.208-130.695-20.613    c-15.725-7.036-24.834-15.426-24.834-24.428c0-24.869,69.637-45.046,155.529-45.046c85.891,0,155.529,20.178,155.529,45.046    C411.53,227.065,401.716,235.74,384.905,242.939z M386.356,216.321c0-19.154-58.359-34.676-130.355-34.676    c-71.998,0-130.355,15.522-130.355,34.676c0,19.162,58.357,34.69,130.355,34.69C327.997,251.011,386.356,235.483,386.356,216.321z    " fill="#3F3F3F"/><path d="M256.001,181.645c71.996,0,130.355,15.522,130.355,34.676c0,19.162-58.359,34.69-130.355,34.69    c-71.998,0-130.355-15.528-130.355-34.69C125.646,197.167,184.003,181.645,256.001,181.645z" fill="#F6901E"/><path d="M384.905,242.939c28.779,39.157,13.748,97.577,13.748,97.577    c-16.297,68.519-112.191,74.911-143.764,75.134c-31.572-0.223-127.482-6.615-143.789-75.134c0,0-15.115-58.739,13.988-97.896    l0.217-0.468c27.695,12.404,75.889,20.613,130.695,20.613C309.655,262.765,356.94,254.909,384.905,242.939z" fill="#282828"/><path d="M264.948,415.495c0,0-3.742,0.203-10.059,0.155c-31.572-0.223-127.482-6.615-143.789-75.134    c0,0-15.115-58.739,13.988-97.896" fill="none"/><path d="M244.815,415.495c0,0,3.742,0.203,10.074,0.155c31.572-0.223,127.467-6.615,143.764-75.134    c0,0,15.031-58.42-13.748-97.577c-0.08-0.102-0.148-0.224-0.23-0.318" fill="none"/><path d="M386.356,216.321c0,19.162-58.359,34.69-130.355,34.69c-71.998,0-130.355-15.528-130.355-34.69    c0-19.154,58.357-34.676,130.355-34.676C327.997,181.645,386.356,197.167,386.356,216.321z" fill="none"/><path d="M286.353,231.857c0.096-0.65,0.137-1.308,0.137-1.973c0-8.961-7.252-16.227-16.227-16.227    c-8.947,0-16.213,7.266-16.213,16.227c0,0.665,0.053,1.322,0.135,1.973H286.353z" fill="#F9A450"/><path d="M269.612,204.73c0.053-0.467,0.094-0.941,0.094-1.43c0-6.487-5.26-11.747-11.74-11.747    c-6.492,0-11.752,5.26-11.752,11.747c0,0.488,0.039,0.962,0.094,1.43H269.612z" fill="#F9A450"/><path d="M183.313,211.57h22.096L163.101,72.762c-1.18-3.857-5.273-6.039-9.139-4.866l-6.221,1.897    c-3.863,1.179-6.033,5.267-4.852,9.137L183.313,211.57z" fill="#905A24"/><path d="M222.53,226.116c0.107-0.916,0.191-1.85,0.191-2.799c0-12.669-10.275-22.937-22.939-22.937    c-12.674,0-22.949,10.268-22.949,22.937c0,0.949,0.082,1.883,0.191,2.799H222.53z" fill="#F9A450"/></g><path d="M288.251,107.154c0,10.242-8.297,18.545-18.545,18.545c-10.234,0-18.545-8.303-18.545-18.545   s8.311-18.545,18.545-18.545C279.954,88.609,288.251,96.913,288.251,107.154z" fill="#F9A450"/><path d="M294.093,130.572c0,4.033-3.279,7.308-7.32,7.308c-4.025,0-7.307-3.274-7.307-7.308   c0-4.04,3.281-7.312,7.307-7.312C290.813,123.259,294.093,126.532,294.093,130.572z" fill="#F9A450"/></g></svg>