<?xml version="1.0" ?><!DOCTYPE svg  PUBLIC '-//W3C//DTD SVG 1.1//EN'  'http://www.w3.org/Graphics/SVG/1.1/DTD/svg11.dtd'><svg enable-background="new 0 0 100 100" id="Lager_1" version="1.1" viewBox="0 0 100 100" xml:space="preserve" xmlns="http://www.w3.org/2000/svg" xmlns:xlink="http://www.w3.org/1999/xlink"><g><path d="M170.6,483.3h-6v-16.2h6c1.7,0,3.2,0.5,4.4,1.6c1.9,1.9,1.7,3.9,1.7,6.5c0,1,0,1.9,0,2.7   c1.9-3.2,1.4-7.4-1.3-10.2L136.5,429c-3.3-3.3-11.9-3.8-11.9,3.4V468c-0.1-0.1-0.1-0.1-0.2-0.2l-0.5-0.5v3.4h-4v12.6h-4v-12.6h-4   v-3.5h11.8L85.7,429c-3.3-3.3-11.9-3.8-11.9,3.4v34.7h10.7v3.5h-7v2.8h6v3.5h-6v6.2h-3.7v31.5c0,7.4,8.6,6.9,11.9,3.6l38.8-38.8   c0.1-0.1,0.1-0.1,0.2-0.2v35.3c0,7.4,8.6,6.9,11.9,3.6l35.2-35.2C171.4,483.3,171,483.3,170.6,483.3z M94.2,483.3l-0.7-2.4h-5   l-0.8,2.4h-4.2l5.9-16.2h3.1l5.9,16.2H94.2z M104.4,483.5c-2.5,0-4.5-0.5-6.1-2.1l2.5-2.5c0.8,0.8,2.3,1.1,3.6,1.1   c1.6,0,2.3-0.5,2.3-1.5c0-0.4-0.1-0.7-0.3-1c-0.2-0.2-0.5-0.4-1.1-0.4l-2-0.3c-1.4-0.2-2.5-0.7-3.2-1.4c-0.7-0.8-1.1-1.9-1.1-3.2   c0-3,2.2-5.1,5.9-5.1c2.3,0,4.1,0.5,5.4,1.9l-2.5,2.5c-1-1-2.4-1-3.1-1c-1.4,0-2,0.8-2,1.5c0,0.2,0.1,0.5,0.3,0.8   c0.2,0.2,0.5,0.4,1.1,0.5l2,0.3c1.5,0.2,2.5,0.7,3.2,1.3c0.9,0.8,1.2,2,1.2,3.5C110.6,481.7,107.8,483.5,104.4,483.5z M141.9,470.7   h-7v2.8h6v3.5h-6v6.2h-4v-16.2h11V470.7z M158.8,483.3h-3.2l-2.6-8l-2.6,8h-3.2l-4.4-16.2h4.2l2.1,8.5l2.6-8.5h2.8l2.6,8.5l2.1-8.5   h4.2L158.8,483.3z" fill="#06000B"/><polygon fill="#06000B" points="89.6,477.6 92.4,477.6 91,473.3  "/><path d="M172.3,471.6c-0.4-0.5-0.9-0.9-1.9-0.9h-1.7v9.1h1.7c1,0,1.5-0.4,1.9-0.9c0.3-0.5,0.4-0.9,0.4-3.6   C172.7,472.5,172.6,472.1,172.3,471.6z" fill="#06000B"/></g><g><g><path d="M51.3,73.4c0,0,24.9-6.8,20.2-30.1S60.7,16.4,66.1,6.6s-24,17-31.7,36.9c-5.9,15.3-0.5,27.2,16,30.1" fill="#296639"/><path d="M45,80c0,0-18.5,6.2-26.4-14S12.7,40.4,4.8,35.3s22.7,2.1,36.7,14c10.8,9.1,12.9,20.8,4.1,30.5" fill="#479958"/></g><g><path d="M41.4,74.1c0,9-8.1,14.7-18,14.7s-18-5.7-18-14.7s8.1-13.7,18-13.7S41.4,65.1,41.4,74.1z" fill="#993829"/><path d="M25,61.9c0,0-2.1-3.8-6.9-3.5c0,0,3.2,1.9,3.5,4.5c0,0-3.5-2.1-6.9,0.4c0,0,4.8,0.3,5.6,0.9    c0,0-3.4,5-1.7,7.2c0,0,1.5-4.3,3.6-5.6c0,0,4.4,1.6,3.7,4.6c0,0,2.4-2.1,0.1-5.2c0,0,2.1-1.3,4.5,0.7c0,0,0.5-3.1-4.2-3.1    c0,0,3-2.4,5.8-2.1C32,60.8,28.2,58.4,25,61.9z" fill="#66AA5B"/></g><g><path d="M79.9,71.8c1.9,2.7,6.4,8.1,12.8,7.4c0,0-5.8-2.3-6.8-6.1c0,0,8,1.4,10.7-1.2c0,0-10.1-0.7-10.9-1.6    c0,0-0.3-4.3,3.7-6.5c0,0-6.2-0.7-7.8,2.5c0,0-3.7-5.7,0.4-9.7c0,0-4.5,4.5-4.5,5.9c0,0-3.2-9.1-0.1-13.4c0,0-6.3,3.5-3.2,10.8    c0,0,4.5,8.2-3,10c-5.3,1.3-9.9,2.1-8.3,6c1.6,3.9,3.9,2.5,5.7-0.2c1.1-1.8,5.3-3.5,8.1-4.5C77.9,70.6,79.3,71,79.9,71.8z" fill="#66AA5B"/><path d="M6.8,93.7c-1.8-5.2,31.3-21.1,48.5-27c17.2-5.9,17.3-0.5,19.1,4.7c1.8,5.2,4.6,8.3-12.7,14.1    S8.5,98.9,6.8,93.7z" fill="#DB793E"/></g></g></svg>