<?xml version="1.0" encoding="UTF-8"?>
<svg xmlns="http://www.w3.org/2000/svg" xmlns:xlink="http://www.w3.org/1999/xlink" width="48" height="48">
<defs>
	<linearGradient id="n" x1="35.3" xlink:href="#c" gradientUnits="userSpaceOnUse" x2="40.7" y1="19.84" y2="15"/>
	<linearGradient id="p" gradientUnits="userSpaceOnUse" x2="0" y2="17.2" y1="27.92">
		<stop stop-color="#8f5902" stop-opacity=".19" offset="0"/>
		<stop stop-color="#c17d11" offset="1"/>
	</linearGradient>
	<linearGradient id="o" x1="14.27" xlink:href="#c" gradientUnits="userSpaceOnUse" x2="49.4" y1="16.21" y2="26.52"/>
	<linearGradient id="s" x1="21.68" xlink:href="#a" gradientUnits="userSpaceOnUse" x2="23.54" y1="39" y2="39.76"/>
	<linearGradient id="r" x1="42.2" xlink:href="#a" gradientUnits="userSpaceOnUse" x2="43.3" y1="39.1" y2="38.2"/>
	<linearGradient id="w" x1="9.19" xlink:href="#d" gradientUnits="userSpaceOnUse" x2="10.43" gradientTransform="translate(1.091 0.45)" y1="19.84" y2="21.68"/>
	<linearGradient id="q" gradientUnits="userSpaceOnUse" x2="0" y2="21.81" y1="29.79">
		<stop stop-color="#8f5902" stop-opacity="0" offset="0"/>
		<stop stop-color="#653f01" offset="1"/>
	</linearGradient>
	<linearGradient id="x" x1="25.43" xlink:href="#d" gradientUnits="userSpaceOnUse" x2="26.67" gradientTransform="translate(.1620 -.2159)" y1="30.2" y2="32"/>
	<linearGradient id="m" y2="23.32" xlink:href="#c" gradientUnits="userSpaceOnUse" x2="33.66" y1="13.53" x1="27.71"/>
	<linearGradient id="c">
		<stop stop-color="#fce94f" offset="0"/>
		<stop stop-color="#8f5902" offset=".5"/>
		<stop stop-color="#c4a000" offset="1"/>
	</linearGradient>
	<linearGradient id="d">
		<stop stop-color="#fff" offset="0"/>
		<stop stop-color="#fff" stop-opacity="0" offset="1"/>
	</linearGradient>
	<linearGradient id="a">
		<stop offset="0"/>
		<stop stop-opacity="0" offset="1"/>
	</linearGradient>
	<linearGradient id="t" x1="40.57" xlink:href="#a" gradientUnits="userSpaceOnUse" x2="41.69" y1="36.4" y2="35.5"/>
	<linearGradient id="u" x1="20" xlink:href="#a" gradientUnits="userSpaceOnUse" x2="21.91" y1="36.3" y2="37.1"/>
	<linearGradient id="v" gradientUnits="userSpaceOnUse" x2="0" y2="35.8" y1="29.55">
		<stop stop-color="#fff" offset="0"/>
		<stop stop-color="#c9c9c9" offset="1"/>
	</linearGradient>
	<radialGradient id="j" gradientUnits="userSpaceOnUse" cy="17.1" cx="29.38" r="7.1">
		<stop stop-color="#f4d9b1" offset="0"/>
		<stop stop-color="#df9725" offset="1"/>
	</radialGradient>
	<radialGradient id="i" xlink:href="#a" gradientUnits="userSpaceOnUse" cy="19" cx="31.1" gradientTransform="matrix(1.776 0 0 .959 -22.62 21.46)" r="8.66"/>
	<radialGradient id="h" gradientUnits="userSpaceOnUse" cy="27.2" cx="28.1" gradientTransform="matrix(1.298 0 0 .885 -6.73 7.63)" r="13.57">
		<stop stop-color="#be0000" offset="0"/>
		<stop stop-color="#780000" offset="1"/>
	</radialGradient>
	<radialGradient id="f" gradientUnits="userSpaceOnUse" cy="20.23" cx="32.3" r="6.64">
		<stop stop-color="#f5e2c3" offset="0"/>
		<stop stop-color="#df9725" offset="1"/>
	</radialGradient>
	<radialGradient id="k" gradientUnits="userSpaceOnUse" cy="27.2" cx="28.1" gradientTransform="matrix(1.298 0 0 .885 -8.36 4.94)" r="13.57">
		<stop stop-color="#3b74bc" offset="0"/>
		<stop stop-color="#2d5990" offset="1"/>
	</radialGradient>
	<radialGradient id="g" xlink:href="#a" gradientUnits="userSpaceOnUse" cy="23.79" cx="32.75" r="8.51"/>
	<radialGradient id="b" xlink:href="#a" gradientUnits="userSpaceOnUse" cy="19" cx="31.1" r="8.66"/>
	<radialGradient id="e" gradientUnits="userSpaceOnUse" cy="17.86" cx="29.2" gradientTransform="matrix(.552 .115 -.068 .348 21.76 26.35)" r="8.66">
		<stop stop-color="#f9adad" stop-opacity=".3" offset="0"/>
		<stop stop-color="#868686" stop-opacity="0" offset="1"/>
	</radialGradient>
</defs>
<g transform="translate(-13.59 -7.297)">
	<g fill-rule="evenodd">
		<circle transform="matrix(1.776 0 0 .959 -24.2 18.77)" cy="19" cx="31.1" r="8.66" fill="url(#b)"/>
		<path stroke-linejoin="round" d="m25.99 41.64h10.61c3 0 5.98-1.1 7.1-4.24 1.04-2.98 0.18-8.66-6.54-13.26h-12.55c-6.72 4.24-7.56 10-6 13.44 1.58 3.45 4.24 4.07 7.43 4.07z" stroke="#204a87" stroke-linecap="round" fill="url(#k)"/>
		<path d="m26.69 25.73c3.18 2.83 4.6 13.1 4.6 13.1s1.41-10.25 3.89-13.26l-8.48 0.18" fill="url(#v)"/>
		<path d="m28.97 26.79s-2.15 1.66-1.97 3.66c-2.04-1.8-2.1-5.25-2.1-5.25l4.07 1.59" fill="#aec8e4"/>
	</g>
	<path opacity=".22" stroke-linejoin="round" d="m25.91 40.59 10.49-0.02c2.64 0 5.25-0.97 6.21-3.73 0.91-2.62-0.09-7.61-5.99-11.65l-11.52-0.23c-5.9 3.73-7 8.82-5.66 12 1.38 3.22 3.39 3.57 6.48 3.59z" stroke="#fff" stroke-linecap="round" fill="none"/>
	<g fill-rule="evenodd">
		<path d="m33.41 26.79s2.15 1.66 1.97 3.66c2.04-1.8 2.1-5.25 2.1-5.25l-4.07 1.59" fill="#aec8e4"/>
		<path opacity=".23" d="m21.85 40.78c-1.25-0.55-1.81-1.86-1.81-1.86 0.84-4.07 3.72-7 3.72-7s-2.28 6.41-1.91 8.9" fill="url(#u)"/>
		<path opacity=".23" d="m40.76 39.92c1.23-0.58 1.8-2 1.8-2-0.96-4-3.98-6.84-3.98-6.84s2.46 6.34 2.17 8.85" fill="url(#t)"/>
	</g>
	<g fill-rule="evenodd">
		<circle transform="translate(-.13 3.5)" cy="19" cx="31.1" r="8.66" fill="url(#b)"/>
		<circle stroke-linejoin="round" r="8.48" stroke-linecap="round" cy="19" stroke="url(#p)" cx="31.1" stroke-width=".98" fill="url(#j)"/>
	</g>
	<circle opacity=".2" stroke-linejoin="round" r="7.44" cx="31.1" cy="19" stroke="#fff" stroke-linecap="round" stroke-width=".98" fill="none"/>
</g>
<path opacity="0.23" d="m8.181 21.17c0.42-0.63 2.29-2.307 3.248-2.831 4.41 4.12-0.2382 4.971-3.248 2.831" fill-rule="evenodd" fill="url(#w)"/>
<g transform="translate(-1.296 -2.267)">
	<path stroke-linejoin="round" stroke="#8f5902" d="m27.55 33.65-5.67-1.4s0.31-11.35 2.67-15c2.36-3.66 5.14-4.54 5.14-4.54s4.55-1.6 6.2 0.47c0.68 0.85 2.69 0.32 4 2.07s4.12 11.36 3.74 17l-9.41 1.53-6.67 0.2v-0.33z" fill="url(#o)"/>
	<g fill-rule="evenodd">
		<ellipse rx="15.38" ry="8.31" cy="39.69" cx="32.62" fill="url(#i)"/>
		<g stroke-linejoin="round" stroke-linecap="round">
			<ellipse rx="7.88" cy="21.76" ry="7.89" stroke="#8f5902" cx="32.75" stroke-width=".8" fill="#8f5902"/>
			<path stroke="#c00" d="m27.62 44.3h10.61c3 0 5.98-1.1 7.1-4.24 1.04-2.98 0.18-8.66-6.54-13.26h-12.55c-6.72 4.24-7.56 10-6 13.44 1.58 3.45 4.24 4.07 7.43 4.07z" fill="url(#h)"/>
		</g>
		<path opacity="0.23" d="m23.48 30.98c0.03723-0.2874 2.063-2.218 3.317-2.912 4.41 4.12-0.3068 5.052-3.317 2.912" fill="url(#x)"/>
	</g>
	<path opacity=".3" stroke-linejoin="round" d="m27.65 43.3 10.65-0.02c2.84 0 5.11-0.83 6.14-3.78 0.92-2.66-0.26-7.72-6.25-11.82l-11.37-0.25c-5.99 3.78-7.14 8.95-5.74 12.22s3.45 3.62 6.57 3.65z" stroke="#fff" stroke-linecap="round" fill="none"/>
	<g fill-rule="evenodd">
		<path opacity="0.23" d="m23.48 43.5c-1.25-0.55-1.81-1.86-1.81-1.86 0.84-4.07 3.72-7 3.72-7s-2.28 6.41-1.91 8.9" fill="url(#s)"/>
		<path opacity="0.23" d="m42.4 42.6c1.23-0.58 1.8-2 1.8-2-0.96-4-3.98-6.84-3.98-6.84s2.47 6.34 2.17 8.84" fill="url(#r)"/>
		<circle cy="23.79" cx="32.75" r="8.51" fill="url(#g)"/>
		<circle stroke-linejoin="round" stroke-linecap="round" stroke="url(#q)" cy="21.76" cx="32.75" r="7.62" fill="url(#f)"/>
	</g>
	<circle opacity=".2" stroke-linejoin="round" r="6.81" cx="32.75" cy="21.76" stroke="#fff" stroke-linecap="round" stroke-width=".8" fill="none"/>
	<g style="" transform="matrix(.954 0 0 .954 1.52 1.07)">
		<g stroke-linejoin="round" stroke="#8f5902">
			<path stroke-width=".81" d="m35.43 15.23c-0.75-0.16 5.98 6.94 7.55 7.22 0.39 0.07-1.89-7.43-3.96-7.88l-2.05-0.44z" fill="url(#n)"/>
			<path stroke-width=".82" d="m36.97 14.1c0.86 0-9.81 8.28-12.89 7.4-3-0.86 1.3-6.82 3.77-7.84 0 0 3.3-1.38 4.83-1.43 2.48-0.07 4.29 1.87 4.29 1.87z" fill="url(#m)"/>
		</g>
		<path opacity=".5" d="m37.1 16.1c-0.02 0.03 3.35 4.17 4.65 4.8 1.27 0.62-0.25-2-0.77-3.37l1.1 3.34c-1.54-0.92-3.26-2.91-4.98-4.76m-5-3.11c-4.11-0.32-9.17 5.46-8.49 7 0.26 0.6 0.68 0.8 1.13 0.8 0.76-0.001 3.45-1.4 5.09-1.95 0 0-1 0.63-2.97 1.46-0.95 0.4-2.61 1.57-3.59 0.07s4.32-8.13 8.83-7.44" fill="#fff"/>
	</g>
	<ellipse id="l" fill-rule="evenodd" rx="4" ry="3.29" cy="36.3" cx="37.48" fill="url(#e)"/>
	<use x="-8.5" style="" xlink:href="#l"/>
</g>
</svg>